<?xml version="1.0" encoding="UTF-8" standalone="no"?>
<!-- Created with Inkscape (http://www.inkscape.org/) -->

<svg
   width="210mm"
   height="297mm"
   viewBox="0 0 210 297"
   version="1.1"
   id="svg3067"
   inkscape:version="1.1 (c68e22c387, 2021-05-23)"
   sodipodi:docname="foto vetor.svg"
   xmlns:inkscape="http://www.inkscape.org/namespaces/inkscape"
   xmlns:sodipodi="http://sodipodi.sourceforge.net/DTD/sodipodi-0.dtd"
   xmlns="http://www.w3.org/2000/svg"
   xmlns:svg="http://www.w3.org/2000/svg">
  <sodipodi:namedview
     id="namedview3069"
     pagecolor="#ffffff"
     bordercolor="#666666"
     borderopacity="1.0"
     inkscape:pageshadow="2"
     inkscape:pageopacity="0.0"
     inkscape:pagecheckerboard="0"
     inkscape:document-units="mm"
     showgrid="false"
     inkscape:zoom="0.76435185"
     inkscape:cx="396.41429"
     inkscape:cy="561.91399"
     inkscape:window-width="1920"
     inkscape:window-height="1017"
     inkscape:window-x="-8"
     inkscape:window-y="-8"
     inkscape:window-maximized="1"
     inkscape:current-layer="layer1" />
  <defs
     id="defs3064">
    <clipPath
       clipPathUnits="userSpaceOnUse"
       id="clipPath1186-3-1">
      <rect
         style="opacity:0.3;fill:#ff8080;stroke:#aa0000;stroke-width:1.02738"
         id="rect1188-7-5"
         width="183.57579"
         height="74.409386"
         x="-137.55946"
         y="49.443081" />
    </clipPath>
    <clipPath
       clipPathUnits="userSpaceOnUse"
       id="clipPath1446-0-3">
      <rect
         style="opacity:0.3;fill:#ff8080;stroke:#aa0000;stroke-width:0.990142"
         id="rect1448-6-0"
         width="46.543106"
         height="43.605892"
         x="38.165146"
         y="103.27336" />
    </clipPath>
  </defs>
  <g
     inkscape:label="Camada 1"
     inkscape:groupmode="layer"
     id="layer1">
    <path
       style="fill:#000000;fill-opacity:1;stroke-width:0.264583"
       d="m 59.486168,219.29743 c -0.756671,-0.80544 -0.754931,-2.11007 0.004,-2.81691 0.57856,-0.53902 0.62188,-0.53947 51.279272,-0.53947 50.65738,0 50.70071,5.3e-4 51.27928,0.53947 0.788,0.73414 0.77209,2.09736 -0.0333,2.85399 l -0.61236,0.57529 H 110.73234 60.061658 Z m 2.12932,-5.72858 c -3.060751,-1.10463 -5.811561,-4.10114 -6.386551,-6.95697 -0.15353,-0.76255 -0.94506,-5.31552 -1.75895,-10.11771 -1.6929,-9.98854 -2.66358,-15.64015 -5.68037,-33.07292 -2.36336,-13.65682 -2.39246,-14.08551 -1.13664,-16.74009 1.74628,-3.69134 5.33061,-5.88178 9.62464,-5.88178 h 1.76861 l 0.59899,-1.65365 c 2.832091,-7.81866 9.076201,-14.90411 16.954191,-19.23858 l 1.9646,-1.08093 -3.70417,0.17737 -3.70416,0.17736 1.32291,-1.06638 c 4.15502,-3.34925 6.52577,-7.46967 8.4888,-14.75374 1.30974,-4.859946 1.76061,-9.140606 1.83928,-17.462496 0.0399,-4.22011 0.21105,-8.92308 0.38033,-10.45104 1.13033,-10.20269 4.35997,-18.40663 9.36162,-23.78043 2.7684,-2.97437 8.03344,-6.09246 12.209142,-7.23053 1.8189,-0.49574 2.80526,-0.5769 7.01146,-0.5769 5.80136,0 7.51991,0.36105 11.82895,2.48511 10.38536,5.11926 15.98434,15.91681 17.01176,32.80691 0.14605,2.4011 0.19133,5.67531 0.10061,7.27604 -0.0907,1.60073 -0.0268,4.45823 0.142,6.35 1.13494,12.717796 4.63453,21.272826 10.47189,25.599366 1.04367,0.77356 1.04734,0.78217 0.26458,0.62145 -1.40799,-0.28912 -9.24738,-1.48131 -9.65729,-1.46866 -0.21828,0.007 0.31828,0.28774 1.19236,0.62445 9.27771,3.57396 17.45311,11.83694 20.76914,20.99163 l 0.59899,1.65365 h 1.76861 c 4.29404,0 7.87836,2.19044 9.62464,5.88178 1.25592,2.65478 1.22682,3.08313 -1.13738,16.74009 -3.57302,20.63987 -4.45951,25.80968 -5.98876,34.92501 -1.63681,9.75647 -1.92412,10.65778 -4.08691,12.82057 -0.70638,0.70638 -1.97459,1.62307 -2.81824,2.03708 l -1.53391,0.75276 -48.15416,0.0581 c -46.765442,0.0564 -48.194442,0.0435 -49.550612,-0.4459 z m 98.101652,-2.88243 c 2.49082,-1.30631 3.78744,-3.24421 4.22281,-6.3113 0.2182,-1.53717 3.27525,-19.37686 7.85673,-45.84866 0.66741,-3.8563 1.20608,-7.5672 1.19705,-8.24645 -0.033,-2.47873 -2.09302,-5.19533 -4.70314,-6.20208 -1.25795,-0.4852 -3.00755,-0.50043 -57.52137,-0.50043 -54.513823,0 -56.263423,0.0152 -57.521373,0.50043 -2.61012,1.00675 -4.67016,3.72335 -4.70313,6.20208 -0.009,0.67925 0.52963,4.39015 1.19704,8.24645 4.58149,26.4718 7.63853,44.31149 7.85673,45.84866 0.31839,2.24297 1.2383,4.09105 2.628871,5.28132 2.21059,1.89219 -1.656801,1.76268 50.938742,1.70571 l 47.36041,-0.0513 z m -50.3545,-30.04507 c -1.88963,-0.69009 -2.82675,-2.06418 -2.82675,-4.14484 0,-3.22002 3.77513,-5.35927 6.37072,-3.6101 1.54731,1.04272 2.15855,2.21543 2.03986,3.91361 -0.2106,3.0134 -2.86003,4.83605 -5.58383,3.84133 z m 3.78783,-44.08391 c 6.59575,-10.84704 5.73912,-9.66072 7.2509,-10.04152 6.0596,-1.52634 10.7009,-5.00624 11.91528,-8.93374 0.1823,-0.58962 0.15921,-0.59527 -2.41345,-0.59118 -2.79336,0.004 -5.21301,0.44884 -6.2915,1.15549 -0.36941,0.24204 -0.67164,0.37564 -0.67164,0.29688 0,-0.0788 0.59531,-1.3295 1.32291,-2.77942 0.72761,-1.44992 1.32292,-2.70471 1.32292,-2.78843 0,-0.0837 -0.86274,0.52284 -1.91721,1.3479 -6.68762,5.23271 -14.62766,6.1604 -21.83833,2.55153 -1.07552,-0.53829 -2.897542,-1.72314 -4.048932,-2.63301 -1.1514,-0.90987 -2.09345,-1.59332 -2.09345,-1.51879 0,0.0745 0.84244,2.0096 1.87209,4.30014 1.02964,2.29055 1.94103,4.32828 2.02531,4.52828 0.11596,0.27521 -0.005,0.26 -0.49717,-0.0625 -1.39027,-0.91094 -3.79077,-1.5293 -8.23455,-2.12119 l -0.99787,-0.13291 0.4687,0.80873 c 1.31362,2.26664 6.37939,5.41291 10.407652,6.46404 l 1.73686,0.45323 4.08397,6.69423 c 2.24618,3.68183 4.1435,6.6957 4.21626,6.6975 0.0728,0.002 1.14433,-1.66108 2.38125,-3.69526 z m 1.83258,-22.34364 c 3.57556,-0.92652 6.65519,-2.82934 9.64651,-5.96033 4.86578,-5.09295 7.98513,-11.778686 9.40428,-20.156326 0.75345,-4.44779 0.97214,-7.84517 0.5155,-8.00812 -0.32557,-0.11617 -8.49797,-1.20039 -9.05758,-1.20164 -0.12453,-2.7e-4 0.14527,-0.34772 0.59955,-0.77208 2.03292,-1.89903 2.15697,-4.97807 0.34999,-8.68729 -0.37218,-0.76398 -0.76694,-1.38906 -0.87725,-1.38906 -0.1103,0 -1.16457,0.66406 -2.3428,1.47569 -7.88648,5.43258 -17.92522,10.40278 -25.284322,12.51831 -1.75525,0.50459 -6.12666,1.49825 -9.45886,2.15008 -0.83674,0.16368 -1.52135,0.39639 -1.52135,0.51714 0,0.12074 0.23733,1.60778 0.52741,3.30453 1.45378,8.50373 4.54145,15.137476 9.42475,20.248766 3.117442,3.26299 6.610272,5.34557 10.156172,6.05556 0.80037,0.16026 1.69334,0.34581 1.98438,0.41233 0.8903,0.2035 4.32258,-0.0901 5.93362,-0.50756 z"
       id="path852" />
    <path
       style="fill:#000000;fill-opacity:1;stroke-width:0.192127"
       d="m -78.978907,110.48081 c -0.27321,-0.043 -1.30146,-0.16836 -2.28501,-0.2785 -8.63747,-0.96727 -15.82692,-4.34705 -19.259573,-9.05399 -1.8271,-2.505365 -4.6574,-9.807009 -5.95474,-15.362146 -0.28635,-1.226125 -0.74298,-3.640452 -1.01474,-5.365172 -0.27175,-1.724712 -0.68205,-3.731098 -0.91178,-4.458635 -0.94804,-3.002417 -2.83351,-5.300792 -4.9157,-5.992238 -0.61952,-0.205729 -1.02773,-0.452415 -1.02981,-0.622334 -0.002,-0.154824 -0.30692,-2.663164 -0.67782,-5.574084 -0.37091,-2.910921 -0.63382,-5.35393 -0.58425,-5.428913 0.34461,-0.521344 5.85838,-1.143917 15.26235,-1.723322 6.086283,-0.374989 18.679223,-0.375733 23.690123,-0.0014 7.19995,0.537873 15.08439,1.638482 19.970503,2.787742 2.553801,0.600681 6.470291,1.786165 11.886166,3.597825 l 2.285005,0.764364 h 4.669358 4.669357 l 2.285005,-0.76289 c 10.673914,-3.563679 14.93147,-4.54488 24.8370093,-5.723968 10.286379,-1.224419 24.3106177,-1.295406 37.5535627,-0.190086 4.877493,0.407098 8.188071,0.903011 8.425432,1.262096 0.05332,0.08069 -0.20986,2.5237 -0.584876,5.428912 -0.375015,2.905219 -0.683126,5.40889 -0.684673,5.563713 -0.0015,0.170145 -0.40884,0.416332 -1.029185,0.622335 -2.083864,0.692001 -3.967601,2.989687 -4.917639,5.998304 -0.230791,0.730865 -0.646149,2.77905 -0.923019,4.551523 -0.922516,5.90567 -2.193297,10.373918 -4.499233,15.819886 -1.614249,3.812398 -2.618508,5.365148 -4.662931,7.209598 -4.002424,3.61096 -10.064296,5.9043 -17.8603007,6.75695 -2.997259,0.3278 -7.551106,0.36603 -9.737358,0.0817 -4.834036,-0.62864 -9.5346173,-2.793 -13.2549773,-6.1032 -5.519698,-4.911167 -8.894208,-11.116443 -11.272195,-20.728054 -0.819214,-3.311194 -1.621142,-5.573365 -2.607258,-7.35486 -1.13741,-2.054814 -1.58178,-2.38898 -3.479898,-2.616883 -1.892264,-0.227193 -5.291837,-0.04655 -6.053456,0.321717 -1.526036,0.737838 -3.205864,4.284616 -4.526456,9.557139 -2.049659,8.183366 -4.279518,12.972741 -8.257606,17.736001 -3.893932,4.6625 -8.594377,7.53628 -14.614587,8.93516 -1.24266,0.28875 -8.65822,0.54677 -9.9348,0.34568 z m 8.94132,-4.17321 c 3.16412,-0.51128 5.15186,-1.09989 6.7029,-1.98486 4.397806,-2.50925 8.763292,-7.722296 10.892756,-13.007584 1.544558,-3.833563 3.466126,-12.894852 3.466126,-16.344755 0,-2.868462 -0.651524,-4.509857 -2.230624,-5.619672 -5.667829,-3.983411 -16.586858,-7.290504 -26.977698,-8.170856 -2.93047,-0.248279 -8.31693,-0.249375 -10.9569,-0.0021 -3.6811,0.344614 -8.8261,1.095645 -9.80103,1.430689 -2.611943,0.897611 -4.210853,3.523902 -4.666803,7.6655 -0.65509,5.950285 2.0467,21.339775 4.647633,26.473153 2.9649,5.851695 9.07701,9.290425 17.79666,10.012555 2.36563,0.19592 8.71315,-0.0619 11.12698,-0.45194 z m 78.3855993,0.10511 c 6.0956697,-1.00952 10.8079767,-3.6233 13.7609997,-7.632843 1.455913,-1.976791 2.545753,-4.908719 3.713688,-9.990651 1.992741,-8.670853 2.713094,-17.350125 1.726595,-20.803019 -0.814938,-2.852385 -2.384616,-4.798155 -4.364538,-5.41028 -1.102051,-0.34071 -5.23676,-0.949008 -8.975211,-1.32043 -8.5372267,-0.84818 -18.3603197,0.203321 -27.221362,2.913877 -6.271548,1.918442 -11.762375,4.729983 -12.857237,6.58347 -0.632244,1.070318 -0.926411,3.156496 -0.769236,5.455312 0.252999,3.700401 2.091957,11.916143 3.381819,15.108653 2.470589,6.11491 8.086968,12.223861 12.767365,13.887101 1.4209943,0.50497 5.2145963,1.24511 7.5539483,1.4738 2.51310403,0.24567 9.139381,0.0901 11.283169,-0.26499 z M -129.71265,37.453323 c -0.0728,-0.06811 -0.13246,-5.109902 -0.13246,-11.203969 0,-9.27187 0.046,-11.138922 0.2818,-11.440442 0.15499,-0.198178 0.3365,-0.309179 0.40335,-0.246669 0.0668,0.06251 0.11758,5.197998 0.1127,11.412195 -0.005,6.214199 0.0353,11.257274 0.0892,11.206836 0.0539,-0.05044 0.10388,-5.214147 0.11097,-11.474911 0.0114,-10.091329 0.0467,-11.356986 0.31064,-11.152168 0.16376,0.127069 0.22689,0.29725 0.1403,0.378178 -0.0866,0.08093 -0.1337,5.123281 -0.10468,11.205229 l 0.0528,11.058087 6.45464,0.05141 6.45463,0.05141 0.0488,-24.522495 0.0488,-24.522496 0.0511,24.212637 c 0.0348,16.444295 0.11656,24.192256 0.25498,24.149115 0.13796,-0.043 0.201,-7.851854 0.19507,-24.166193 -0.006,-16.1797327 0.0575,-24.102671 0.19283,-24.102671 0.1353,0 0.20158,8.0943303 0.20158,24.615384 v 24.615385 h -7.51734 c -4.13453,0 -7.57693,-0.05573 -7.64979,-0.123852 z m 0.46671,-11.385803 c 0.005,-6.1631 -0.0384,-11.249994 -0.0964,-11.304207 -0.058,-0.05421 -0.10543,5.028861 -0.10543,11.29572 0,6.266859 0.0433,11.353754 0.0964,11.304208 0.053,-0.04955 0.10042,-5.132622 0.10542,-11.295721 z m 14.44791,11.025862 c -0.066,-0.06173 -0.23739,-0.06833 -0.38083,-0.01466 -0.1585,0.0593 -0.11142,0.103325 0.12005,0.112239 0.20946,0.0081 0.32681,-0.03585 0.26078,-0.09757 z m -2.72793,-0.259312 c 0,-0.102178 0.22354,-0.185777 0.49674,-0.185777 0.27321,0 0.49675,0.0836 0.49675,0.185777 0,0.102176 -0.22354,0.185776 -0.49675,0.185776 -0.2732,0 -0.49674,-0.0836 -0.49674,-0.185776 z m -5.82842,-3.839382 c -0.0728,-0.06812 -0.13246,-0.210236 -0.13246,-0.31582 0,-0.11553 0.0944,-0.103721 0.23705,0.02967 0.31665,0.296065 1.1702,-0.425759 1.02138,-0.863759 -0.0894,-0.263126 -0.0741,-0.266812 0.11066,-0.02667 0.27062,0.351743 0.28724,0.989386 0.0218,0.835994 -0.10928,-0.06315 -0.1987,-0.02135 -0.1987,0.09289 0,0.114237 -0.0832,0.159607 -0.18497,0.100822 -0.10172,-0.05879 -0.24112,-0.02192 -0.30977,0.08192 -0.14363,0.217295 -0.37374,0.243751 -0.56497,0.06496 z m 1.71551,-0.479922 c 0.0461,-0.280987 0.007,-0.510885 -0.0873,-0.510885 -0.0941,0 -0.17114,-0.208999 -0.17114,-0.464441 0,-0.319558 -0.10847,-0.463554 -0.34772,-0.461598 -0.29716,0.0025 -0.30438,0.02903 -0.0496,0.182933 0.17539,0.105971 0.20151,0.181258 0.0635,0.182932 -0.12901,0.0015 -0.27235,0.190943 -0.31854,0.420842 -0.0462,0.229898 -0.0826,0.104499 -0.081,-0.278665 0.003,-0.699657 0.16678,-0.817008 0.81536,-0.584308 0.17224,0.0618 0.26783,0.180931 0.21242,0.264744 -0.0554,0.08381 -2.8e-4,0.358527 0.1225,0.610473 0.1669,0.34248 0.16449,0.545244 -0.01,0.80347 -0.20593,0.305539 -0.22311,0.286446 -0.14891,-0.165497 z m 0.33769,0.277784 c 0,-0.07615 0.3353,-0.142052 0.74511,-0.146451 0.40981,-0.0044 0.86806,-0.0462 1.01832,-0.09289 0.15026,-0.04669 0.31024,0.0085 0.3555,0.122728 0.0538,0.135597 -0.29949,0.215849 -1.01831,0.231342 -0.60534,0.01305 -1.10062,-0.03858 -1.10062,-0.114729 z m -2.44187,-0.788483 c -0.0571,-0.204254 -0.0418,-0.407224 0.034,-0.451049 0.0758,-0.04383 0.15586,0.12329 0.17781,0.371367 0.0484,0.546125 -0.069,0.590273 -0.21184,0.07968 z m 3.37498,-0.08317 c -0.18737,-0.175188 -0.29101,-0.393656 -0.23031,-0.485483 0.0607,-0.09183 0.009,-0.344862 -0.11593,-0.562297 -0.16365,-0.285904 -0.1662,-0.451526 -0.009,-0.598325 0.24539,-0.229438 0.28675,-1.224941 0.0644,-1.551583 -0.0806,-0.118447 -0.52572,-0.357205 -0.98914,-0.530574 -0.92359,-0.345514 -0.94708,-0.647389 -0.0504,-0.647389 0.31495,0 0.6279,-0.0836 0.69544,-0.185777 0.15819,-0.23932 0.49674,-0.240815 0.49674,-0.0022 0,0.100969 -0.37981,0.240365 -0.84401,0.309768 -0.46421,0.0694 -0.71009,0.161484 -0.54642,0.204625 0.16368,0.04314 0.58819,0.200263 0.94336,0.349165 0.60051,0.251757 0.64576,0.334128 0.64576,1.175413 0,0.554485 -0.0961,0.937646 -0.24837,0.989834 -0.19869,0.06812 -0.19869,0.134378 0,0.331301 0.13661,0.135384 0.24837,0.389666 0.24837,0.56507 0,0.175403 0.10283,0.350962 0.2285,0.390131 0.12568,0.03917 0.18875,0.18273 0.14016,0.319027 -0.0687,0.192819 -0.16395,0.177126 -0.42903,-0.07071 z m 0.97576,-0.0251 c -0.18652,-0.454462 -0.14608,-0.514508 0.17744,-0.26347 0.3303,0.256307 0.39544,0.55733 0.12061,0.55733 -0.0976,0 -0.23172,-0.132236 -0.29805,-0.29386 z m -4.35344,-1.07961 c -0.0813,-0.193435 -0.10102,-0.395466 -0.0438,-0.448959 0.18123,-0.169439 0.34068,0.108226 0.26475,0.461009 -0.0696,0.323312 -0.0802,0.322732 -0.22094,-0.01206 z m 1.0537,-0.842227 c 0,-0.09468 0.15647,-0.210387 0.34772,-0.257113 0.33116,-0.08092 0.33116,-0.08599 0,-0.106511 -0.63451,-0.03932 -0.3972,-0.57888 0.2546,-0.57888 0.67867,0 0.96694,0.411179 0.58775,0.838359 -0.26753,0.301395 -1.19007,0.382128 -1.19007,0.104145 z m 1.19218,-0.581915 c 0,-0.09615 -0.24063,-0.174813 -0.53472,-0.174813 -0.50907,0 -0.51632,0.01258 -0.15122,0.262191 0.38994,0.266591 0.68594,0.228884 0.68594,-0.08738 z m -2.38436,-0.453477 c 0,-0.153266 0.0894,-0.278664 0.1987,-0.278664 0.10928,0 0.19869,0.125398 0.19869,0.278664 0,0.153266 -0.0894,0.278664 -0.19869,0.278664 -0.10929,0 -0.1987,-0.125398 -0.1987,-0.278664 z m 0.1987,-0.650218 c 0,-0.102177 0.0947,-0.185776 0.21042,-0.185776 0.11573,0 0.15516,0.0836 0.0876,0.185776 -0.0675,0.102178 -0.16223,0.185777 -0.21042,0.185777 -0.0482,0 -0.0876,-0.0836 -0.0876,-0.185777 z m 0.74511,-0.123035 c 0.1366,-0.05154 0.36014,-0.05154 0.49674,0 0.1366,0.05154 0.0249,0.0937 -0.24837,0.0937 -0.27321,0 -0.38497,-0.04216 -0.24837,-0.0937 z m -0.5878,-0.364348 c 0.19875,-0.08214 0.20377,-0.165668 0.0222,-0.370181 -0.19528,-0.219997 -0.16102,-0.238714 0.20514,-0.112068 0.60525,0.209338 0.61193,0.496615 0.0127,0.546761 -0.27322,0.02286 -0.38125,-0.0062 -0.24008,-0.06451 z m 0.99761,-0.568405 c 0.14343,-0.05366 0.31481,-0.04706 0.38083,0.01465 0.066,0.06173 -0.0514,0.10564 -0.26079,0.09757 -0.23147,-0.0089 -0.27855,-0.05294 -0.12004,-0.112239 z m 3.532,-0.218075 c -0.17267,-0.261217 0.0929,-0.797165 0.35463,-0.715604 0.29412,0.09166 0.28925,0.730588 -0.006,0.822689 -0.1266,0.03945 -0.28335,-0.0087 -0.34837,-0.107085 z m -3.2527,-0.241051 c 0.10313,-0.289273 0.54766,-0.339932 0.56323,-0.06418 0.006,0.102176 -0.13864,0.21466 -0.32093,0.249962 -0.20718,0.04013 -0.29801,-0.02952 -0.2423,-0.185777 z m -1.43422,-0.34285 c 0,-0.102177 0.0798,-0.185777 0.17744,-0.185777 0.25273,0 0.42721,-0.506068 0.28986,-0.840735 -0.0897,-0.218546 -0.17922,-0.234599 -0.39116,-0.07015 -0.21889,0.169848 -0.27484,0.135225 -0.27484,-0.17007 0,-0.210835 -0.0894,-0.435004 -0.1987,-0.498153 -0.10928,-0.06315 -0.20006,-0.381581 -0.20173,-0.707626 -0.002,-0.373446 -0.0625,-0.505279 -0.16361,-0.356268 -0.19233,0.283348 -0.0586,1.305279 0.18956,1.448686 0.214,0.123662 0.23352,0.451763 0.0267,0.449753 -0.18133,-0.0018 -0.64576,-0.903713 -0.64576,-1.254099 0,-0.138926 -0.0708,-0.211649 -0.15745,-0.16161 -0.0866,0.05004 -0.1706,-0.07223 -0.18667,-0.271715 -0.0161,-0.199485 0.0547,-0.314157 0.15745,-0.254831 0.10267,0.05932 0.18667,-0.02246 0.18667,-0.18176 0,-0.159297 -0.0973,-0.28963 -0.21616,-0.28963 -0.1421,0 -0.17016,-0.25459 -0.0819,-0.743106 0.11074,-0.612836 0.0779,-0.743106 -0.18764,-0.743106 -0.17705,0 -0.39371,0.181492 -0.48148,0.403316 -0.096,0.242662 -0.21275,0.322874 -0.29306,0.201366 -0.22559,-0.341275 0.225,-1.162011 0.63796,-1.162011 0.44398,0 0.62226,0.344636 0.62226,1.202865 0,0.375421 0.11615,0.65682 0.29805,0.722082 0.22283,0.07995 0.29804,-0.02945 0.29804,-0.433603 0,-0.297294 0.0894,-0.592201 0.19869,-0.65535 0.10929,-0.06315 0.19586,-0.256182 0.19238,-0.428962 -0.006,-0.287574 -0.027,-0.288742 -0.2509,-0.0138 -0.21179,0.260057 -0.28025,0.264648 -0.51047,0.03422 -0.37469,-0.375025 -0.15851,-0.491852 0.64826,-0.350343 l 0.69389,0.121709 -0.39658,0.628443 c -0.47107,0.746495 -0.46543,2.224992 0.0105,2.758016 0.94524,1.058569 2.7478,1.066767 3.48427,0.01585 0.29377,-0.419188 0.8588,-0.463966 0.58263,-0.04617 -0.0674,0.101915 -0.16743,0.143272 -0.22237,0.0919 -0.055,-0.05136 -0.29201,0.11544 -0.52683,0.370682 -0.28035,0.304736 -0.71282,0.499924 -1.25958,0.568492 -0.51309,0.06434 -1.00286,0.273828 -1.27618,0.545842 -0.46747,0.465238 -0.77166,0.566016 -0.77166,0.255647 z m 2.69088,0.01283 c -0.13952,-0.211072 0.22091,-0.445986 0.46652,-0.30406 0.0973,0.05624 0.33199,-0.11896 0.52147,-0.389337 0.32798,-0.468018 0.32767,-0.485557 -0.006,-0.365705 -0.30366,0.108948 -0.31508,0.08556 -0.0848,-0.173805 0.24331,-0.27411 0.28987,-0.270508 0.54539,0.04219 0.2636,0.322581 0.27215,0.319166 0.15139,-0.06048 -0.0704,-0.2213 -0.0349,-0.456132 0.0788,-0.52185 0.31459,-0.181782 0.24893,0.58779 -0.1047,1.227159 -0.19236,0.347806 -0.41788,0.524985 -0.58972,0.463329 -0.15304,-0.05491 -0.33109,-0.01989 -0.39569,0.07783 -0.14941,0.226038 -0.43441,0.228351 -0.58224,0.0047 z m 3.40246,-0.136688 c -0.20612,-0.19272 -0.15574,-0.805031 0.0662,-0.805031 0.10928,0 0.19869,0.208998 0.19869,0.464441 0,0.486374 -0.0459,0.545379 -0.26492,0.34059 z m -7.68292,-1.176585 c 0,-0.204353 0.0343,-0.371552 0.0762,-0.371552 0.0419,0 0.12294,0.167199 0.1801,0.371552 0.0572,0.204355 0.0229,0.371554 -0.0762,0.371554 -0.0991,0 -0.1801,-0.167199 -0.1801,-0.371554 z m 6.33563,-0.23222 c -0.0965,-0.989267 -0.19109,-1.319416 -0.43116,-1.505098 -0.15169,-0.117334 -0.38476,-0.57263 -0.51791,-1.011768 -0.17134,-0.565069 -0.42768,-0.904234 -0.87704,-1.16041 -0.55639,-0.317189 -0.58084,-0.36206 -0.19775,-0.362667 0.24046,-3.72e-4 0.53624,0.145603 0.6573,0.324414 0.16338,0.241321 0.24771,0.263261 0.32724,0.08513 0.0823,-0.184259 0.17185,-0.189762 0.38586,-0.0237 0.2161,0.167686 0.2794,0.158994 0.28176,-0.03869 0.002,-0.200263 0.0444,-0.19518 0.19566,0.0237 0.29959,0.43345 0.23888,1.114659 -0.0993,1.114659 -0.16393,0 -0.29805,-0.162265 -0.29805,-0.360588 0,-0.198325 -0.0894,-0.412257 -0.19869,-0.475406 -0.26476,-0.152993 -0.22776,0.227589 0.0994,1.02177 0.14729,0.35762 0.27461,0.512862 0.28292,0.344986 0.0158,-0.318604 0.48545,-0.586425 0.69113,-0.394111 0.19884,0.185909 0.13243,0.792231 -0.0868,0.792231 -0.13175,0 -0.15823,0.333449 -0.0737,0.928883 0.0725,0.510885 0.0756,0.928882 0.007,0.928882 -0.0687,0 -0.13514,-0.104499 -0.1476,-0.232221 z m -0.23901,-3.332365 c -0.0635,-0.1482 -0.11051,-0.10418 -0.12004,0.11224 -0.009,0.195838 0.0383,0.305563 0.10436,0.243832 0.066,-0.06173 0.0731,-0.221966 0.0157,-0.356072 z m -3.27066,2.903835 c -0.25145,-0.164671 -0.4416,-0.484652 -0.4416,-0.743106 0,-0.249651 -0.0872,-0.453908 -0.19378,-0.453908 -0.2479,0 0.0873,-0.855848 0.47841,-1.221538 0.36921,-0.345212 0.63737,-0.335267 0.78695,0.02919 0.18657,0.454601 0.13127,0.578686 -0.0956,0.214436 -0.35414,-0.56867 -0.78177,0.06058 -0.75025,1.103979 0.0149,0.49264 0.0658,0.70761 0.11316,0.477711 0.0474,-0.229898 0.17888,-0.417996 0.29224,-0.417996 0.11338,0 0.14714,0.143749 0.075,0.319446 -0.0721,0.175694 -0.0666,0.259111 0.0123,0.185371 0.0789,-0.07374 0.29825,-0.003 0.48752,0.157096 0.22814,0.193042 0.3882,0.224484 0.47492,0.09329 0.0719,-0.108834 0.0445,-0.197878 -0.061,-0.197878 -0.1055,0 -0.14532,-0.166259 -0.0885,-0.369464 0.0568,-0.203205 0.18259,-0.323671 0.27945,-0.267701 0.0969,0.05597 0.1761,-0.07931 0.1761,-0.300629 0,-0.281359 -0.0897,-0.370229 -0.29804,-0.295459 -0.35776,0.128358 -0.40564,-0.179719 -0.0496,-0.319584 0.17787,-0.06988 0.14966,-0.156006 -0.0994,-0.303377 -0.19124,-0.113184 -0.34489,-0.306135 -0.34144,-0.428779 0.004,-0.122644 0.2366,0.02201 0.51809,0.32146 0.42699,0.454225 0.49388,0.669412 0.40363,1.298536 -0.0659,0.459754 -0.27677,0.881723 -0.5401,1.081095 -0.52701,0.398998 -0.58405,0.400893 -1.13847,0.03781 z m 0.55188,-0.08235 c 0,-0.102177 -0.15647,-0.184497 -0.34772,-0.182932 -0.29716,0.0025 -0.30438,0.02903 -0.0496,0.182932 0.37499,0.226575 0.3974,0.226575 0.3974,0 z m 4.17262,-0.278665 c 0,-0.153265 0.0894,-0.278665 0.19869,-0.278665 0.10928,0 0.1987,0.1254 0.1987,0.278665 0,0.153265 -0.0894,0.278665 -0.1987,0.278665 -0.10928,0 -0.19869,-0.1254 -0.19869,-0.278665 z m -1.93729,-0.03015 c -0.34596,-0.130523 -0.31122,-0.434294 0.0496,-0.434294 0.16392,0 0.29805,0.1254 0.29805,0.278665 0,0.153265 -0.0224,0.272064 -0.0496,0.263998 -0.0273,-0.0081 -0.16145,-0.05683 -0.29805,-0.108369 z m -6.40795,-0.423329 c 0,-0.210384 0.0894,-0.382518 0.1987,-0.382518 0.10929,0 0.1987,0.120465 0.1987,0.2677 0,0.147235 -0.0894,0.319369 -0.1987,0.382518 -0.10929,0.06315 -0.1987,-0.05732 -0.1987,-0.2677 z m 4.204,-0.382518 c 0,-0.255443 0.0451,-0.359942 0.10021,-0.232221 0.0551,0.127722 0.0551,0.33672 0,0.464441 -0.0551,0.127722 -0.10021,0.02322 -0.10021,-0.23222 z m -0.61178,-0.479922 c 0.01,-0.21642 0.0566,-0.26044 0.12004,-0.11224 0.0574,0.134106 0.0503,0.294338 -0.0157,0.356072 -0.066,0.06173 -0.11299,-0.04799 -0.10436,-0.243832 z m -4.387,-0.437996 c 0,-0.09615 0.0894,-0.22648 0.19869,-0.289629 0.10929,-0.06315 0.1987,0.01551 0.1987,0.174812 0,0.159296 -0.0894,0.289629 -0.1987,0.289629 -0.10928,0 -0.19869,-0.07867 -0.19869,-0.174812 z m 2.20134,-0.119333 c 0.01,-0.21642 0.0566,-0.26044 0.12005,-0.112241 0.0574,0.134107 0.0503,0.294339 -0.0157,0.356072 -0.066,0.06173 -0.113,-0.04799 -0.10437,-0.243831 z m 6.54128,-0.913402 c 0,-0.153266 0.0894,-0.278665 0.19871,-0.278665 0.10928,0 0.19869,0.125399 0.19869,0.278665 0,0.153266 -0.0894,0.278665 -0.19869,0.278665 -0.10929,0 -0.19871,-0.125399 -0.19871,-0.278665 z m -5.31511,-0.220545 c -0.13661,-0.049 -0.24837,-0.210456 -0.24837,-0.358803 0,-0.209095 0.0864,-0.226493 0.38432,-0.0774 0.21139,0.105771 0.58394,0.192312 0.8279,0.192312 0.24397,0 0.40632,0.03004 0.36079,0.06675 -0.17376,0.140096 -1.08731,0.262266 -1.32464,0.177143 z m 1.3412,-0.591142 c 0,-0.164849 1.40408,-0.445427 1.54935,-0.309606 0.044,0.04115 0.0211,0.163965 -0.051,0.272939 -0.15614,0.236213 -1.49839,0.269061 -1.49839,0.03667 z m 0.16143,-0.708542 c 0.14344,-0.05367 0.31481,-0.04706 0.38084,0.01466 0.066,0.06173 -0.0514,0.105639 -0.26079,0.09757 -0.23147,-0.0089 -0.27855,-0.05293 -0.12005,-0.112239 z m -0.82376,-1.668934 c -0.0728,-0.06812 -0.14515,-0.423415 -0.16065,-0.78955 l -0.0282,-0.665699 -0.1423,0.743106 c -0.10814,0.564673 -0.14192,0.363936 -0.14066,-0.835994 10e-4,-1.277232 0.0282,-1.419288 0.14066,-0.743106 0.13728,0.825594 0.13938,0.827517 0.16885,0.154527 0.0384,-0.875918 -0.12898,-1.269903 -0.53783,-1.266342 -0.18726,0.0017 -0.24174,0.06104 -0.12776,0.139333 0.11384,0.07821 0.1478,0.493463 0.0795,0.972482 -0.11829,0.829765 -0.1194,0.830798 -0.14902,0.13866 -0.0164,-0.383536 -0.20146,-0.996713 -0.41121,-1.362618 -0.35735,-0.623375 -0.38693,-0.637961 -0.46968,-0.231547 -0.0797,0.39134 -0.091,0.3838 -0.11538,-0.07715 -0.0185,-0.349683 0.0707,-0.510885 0.28272,-0.510885 0.19158,0 0.25523,-0.0886 0.16683,-0.232221 -0.0833,-0.135303 -0.0674,-0.167065 0.0379,-0.0761 0.0995,0.08586 0.18088,0.336662 0.18088,0.557329 0,0.317602 0.13576,0.413425 0.65149,0.459825 0.35831,0.03224 0.6383,0.157634 0.62221,0.278664 -0.0161,0.121028 -0.0187,0.920196 -0.006,1.775929 l 0.0236,1.555878 0.60597,-0.113313 c 0.37582,-0.07028 0.56003,-0.04381 0.48502,0.06967 -0.13651,0.206513 -0.95486,0.248326 -1.15722,0.05913 z m 1.45711,-0.329625 c 0,-0.159297 0.0894,-0.28963 0.19869,-0.28963 0.10929,0 0.1987,0.07867 0.1987,0.174812 0,0.09615 -0.0894,0.22648 -0.1987,0.28963 -0.10928,0.06315 -0.19869,-0.01551 -0.19869,-0.174812 z m 0.59609,-0.05916 c 0,-0.179776 -0.17285,-0.42779 -0.3841,-0.551142 -0.32033,-0.187039 -0.39897,-0.171327 -0.47369,0.09464 -0.0493,0.175407 -0.1,-0.370775 -0.11264,-1.213735 l -0.0231,-1.532656 h 0.60782 c 0.37045,0 0.5579,0.0755 0.48001,0.193334 -0.0703,0.106332 -0.32145,0.138736 -0.55814,0.07201 -0.35074,-0.09888 -0.3844,-0.07623 -0.18197,0.122488 0.1366,0.134095 0.23494,0.582389 0.21853,0.996206 l -0.0298,0.752394 -0.13902,-0.835994 -0.139,-0.835994 -0.0298,0.851046 c -0.0257,0.732152 0.0396,0.885771 0.4669,1.099607 0.31175,0.155999 0.49673,0.409825 0.49673,0.68161 0,0.238177 -0.0447,0.433049 -0.0993,0.433049 -0.0547,0 -0.0993,-0.147089 -0.0993,-0.326864 z m -2.96476,-0.338834 c 0.01,-0.21642 0.0566,-0.26044 0.12005,-0.112241 0.0574,0.134106 0.0503,0.294338 -0.0157,0.356073 -0.066,0.06173 -0.11298,-0.04799 -0.10435,-0.243832 z m -3.98054,-2.442418 c -0.15894,-0.0585 -0.45934,-0.254754 -0.66756,-0.436126 -0.20821,-0.18137 -0.50289,-0.285161 -0.65482,-0.230648 -0.21123,0.07578 -0.27625,-0.102321 -0.27625,-0.756757 0,-0.478527 0.0928,-0.855871 0.21042,-0.855871 0.11574,0 0.15035,-0.09088 0.0769,-0.201961 -0.0734,-0.111078 -0.30019,-0.161204 -0.50393,-0.111388 -0.35862,0.08768 -0.37054,-0.294121 -0.37363,-11.96639839 -0.002,-7.95247181 0.0647,-12.05697161 0.1964,-12.05697161 0.13165,0 0.19706,4.0245413 0.19215,11.82289604 -0.004,6.50259256 0.0396,11.86688796 0.0971,11.92065796 0.0575,0.05377 0.10456,-0.33417 0.10456,-0.862083 v -0.959851 l 0.74511,1.86e-4 0.74511,1.86e-4 -0.0596,-1.0684696 -0.0596,-1.0684675 1.1504,1.0982048 c 1.14181,1.0899993 1.15837,1.0979033 2.21586,1.0579023 0.76194,-0.02882 1.04255,0.02394 0.98504,0.185216 -0.10743,0.30136 -0.94136,0.407385 -1.25993,0.160187 -0.18159,-0.140906 -0.29657,-0.133427 -0.40206,0.02615 -0.089,0.134684 -0.0639,0.175081 0.0632,0.101653 0.13011,-0.07518 0.17379,0.01076 0.11403,0.224377 -0.13147,0.470064 0.6477,0.668771 0.94415,0.240783 0.19376,-0.279703 0.20336,-0.278124 0.10513,0.01728 -0.0595,0.17881 -0.0215,0.325109 0.0843,0.325109 0.10585,1.35e-4 0.19246,-0.171997 0.19246,-0.382382 0,-0.211796 0.0901,-0.330437 0.20194,-0.265828 0.11106,0.06418 0.14807,0.198173 0.0822,0.297767 -0.0659,0.09959 -0.0147,0.299391 0.11368,0.443996 0.14023,0.157977 0.18041,0.488405 0.10067,0.827855 -0.19831,0.84415 -0.47278,0.681473 -0.37898,-0.224611 0.045,-0.434252 0.0339,-0.698609 -0.0247,-0.587459 -0.0646,0.122542 -0.39264,0.1586 -0.83348,0.0916 -0.60499,-0.09194 -0.75374,-0.206905 -0.88621,-0.684904 -0.15173,-0.547452 -0.20249,-0.572329 -1.08152,-0.530005 -0.54711,0.02634 -0.81452,-0.01787 -0.65735,-0.108704 0.14574,-0.08421 0.32617,-0.117748 0.40097,-0.07453 0.0748,0.04322 0.25494,-0.06679 0.40032,-0.244478 0.14539,-0.177684 0.1861,-0.2610886 0.0905,-0.1853438 -0.0956,0.075747 -0.2989,0.040696 -0.45172,-0.07789 -0.21436,-0.1663387 -0.26395,-0.1606632 -0.21698,0.024835 0.0335,0.1322448 -0.0537,0.2796328 -0.1937,0.3275278 -0.14002,0.04789 -0.24119,0.01655 -0.22483,-0.06967 0.0894,-0.4714225 -0.0431,-1.1855365 -0.20294,-1.0931908 -0.10209,0.058987 -0.13932,0.3774218 -0.0828,0.7076248 0.0893,0.521281 0.0222,0.644581 -0.50981,0.935982 -0.71571,0.392038 -0.88152,1.166773 -0.21484,1.003767 0.21883,-0.0535 0.46472,-5.57e-4 0.54642,0.117665 0.0817,0.118219 0.37208,0.332872 0.6453,0.477011 0.44295,0.233694 0.46947,0.231214 0.24493,-0.0229 -0.13848,-0.156731 -0.19418,-0.425325 -0.12378,-0.596876 0.11585,-0.28228 0.1635,-0.276296 0.50159,0.063 0.20669,0.207437 0.50721,0.326968 0.67273,0.267581 0.16453,-0.05903 0.44929,0.0065 0.63281,0.145672 0.22991,0.174339 0.28726,0.180802 0.18443,0.02078 -0.0821,-0.127721 -0.0545,-0.232221 0.0612,-0.232221 0.11573,0 0.21042,0.162265 0.21042,0.360589 0,0.198323 0.0765,0.404793 0.16999,0.458819 0.0935,0.05403 0.14142,-0.129139 0.10649,-0.407032 -0.0349,-0.277896 -0.0165,-0.363598 0.0411,-0.190453 0.06,0.180555 0.22646,0.271113 0.39026,0.212346 0.15708,-0.05635 0.28559,-0.0099 0.28559,0.103184 0,0.11311 -0.0866,0.205653 -0.19246,0.205653 -0.10585,0 -0.14364,0.118951 -0.084,0.264338 0.11506,0.280359 -0.23142,0.299167 -0.6806,0.03695 -0.43061,-0.251379 -0.56417,0.07905 -0.14719,0.364126 0.21196,0.144912 0.27888,0.263476 0.14872,0.263476 -0.13018,0 -0.23668,0.175025 -0.23668,0.388945 0,0.228062 -0.15869,0.427747 -0.38365,0.482748 -0.21101,0.05159 -0.43173,0.210964 -0.49051,0.35416 -0.11628,0.283341 -0.71541,0.363457 -0.71541,0.09567 0,-0.09058 -0.27105,-0.201885 -0.60233,-0.247347 -0.6424,-0.08815 -0.56006,0.129867 0.10559,0.279566 l 0.39739,0.08937 -0.39739,0.0069 c -0.21856,0.0038 -0.52743,-0.04098 -0.68638,-0.09947 z m 1.7792,-0.132008 c 0,-0.04506 -0.0894,-0.133592 -0.1987,-0.196741 -0.10928,-0.06315 -0.19869,-0.02628 -0.19869,0.08192 0,0.108207 0.0894,0.196741 0.19869,0.196741 0.10929,0 0.1987,-0.03686 0.1987,-0.08192 z m -1.28014,-0.738881 c 0.50224,-0.343371 0.2514,-0.574484 -0.31559,-0.29077 -0.3556,0.177935 -0.49707,0.16335 -0.75503,-0.07784 -0.29079,-0.271882 -0.2388,-0.2968 0.61927,-0.2968 1.02036,0 1.09259,-0.0808 0.62739,-0.701769 -0.59738,-0.797432 -1.9686,-0.289486 -1.98237,0.734334 -0.004,0.273351 0.0532,0.462372 0.12651,0.420043 0.0732,-0.04233 0.24369,0.04751 0.37873,0.199655 0.30908,0.348212 0.80369,0.353208 1.30109,0.01315 z m -1.00486,-1.222737 c 0.0675,-0.102177 0.24636,-0.185776 0.39739,-0.185776 0.15102,0 0.32985,0.0836 0.39739,0.185776 0.0699,0.105782 -0.10119,0.185777 -0.39739,0.185777 -0.2962,0 -0.46732,-0.08 -0.39739,-0.185777 z m 2.93076,1.329514 c 0.082,-0.016 0.14903,-0.229014 0.14903,-0.473379 0,-0.318986 -0.14011,-0.47718 -0.49675,-0.560869 -0.2732,-0.06411 -0.49674,-0.200167 -0.49674,-0.302343 0,-0.107851 0.21924,-0.134332 0.52265,-0.06313 0.39548,0.09281 0.50053,0.05977 0.43174,-0.135793 -0.12806,-0.364089 -1.03854,-0.425546 -1.33621,-0.09019 -0.30801,0.346984 -0.13155,0.635712 0.53283,0.871886 0.41003,0.145758 0.45972,0.225314 0.25391,0.406539 -0.20072,0.17673 -0.27553,0.175242 -0.34696,-0.0069 -0.12179,-0.31055 -0.65405,-0.29795 -0.65405,0.01549 0,0.136238 0.0463,0.290952 0.1028,0.343813 0.0893,0.08353 0.89934,0.08044 1.33775,-0.0051 z m -3.61897,-2.769281 c -0.0833,-0.773705 -0.10353,-0.805863 -0.16445,-0.260979 -0.0617,0.551563 0.0429,1.143417 0.20209,1.143417 0.0315,0 0.0146,-0.397097 -0.0376,-0.882438 z m 8.5367,3.584938 c 0,-0.337159 0.49963,-0.974387 0.90354,-1.152364 0.42719,-0.18824 0.48733,-0.171045 0.48733,0.139332 0,0.19474 -0.13097,0.354074 -0.29105,0.354074 -0.16008,0 -0.38676,0.167198 -0.50373,0.371552 -0.18578,0.32455 -0.59609,0.522385 -0.59609,0.287406 z m -3.18829,-1.430245 c -0.21943,-0.144184 -0.17194,-0.165488 0.19751,-0.0886 0.6196,0.128952 1.00037,-0.1664 1.01642,-0.788405 l 0.0126,-0.488139 0.19676,0.461119 c 0.13411,0.314296 0.1301,0.481895 -0.0126,0.526366 -0.44247,0.137902 -0.18248,0.337801 0.34518,0.265393 0.30498,-0.04185 0.86381,0.0018 1.24184,0.09694 0.57774,0.14544 0.41657,0.175592 -1.01074,0.189092 -0.93394,0.0088 -1.82807,-0.06936 -1.98696,-0.173764 z m -6.33343,-0.265965 c 0.01,-0.21642 0.0566,-0.26044 0.12004,-0.11224 0.0574,0.134106 0.0503,0.294338 -0.0157,0.356071 -0.066,0.06173 -0.11299,-0.04799 -0.10436,-0.243831 z m 8.17468,-0.620185 c 0.0306,-0.247439 0.16728,-0.484305 0.30389,-0.526368 0.33798,-0.104068 0.31245,0.178972 -0.0555,0.615641 -0.29428,0.349219 -0.30213,0.346399 -0.24837,-0.08927 z m -1.23601,-0.37514 c 0,-0.312562 0.0782,-0.568295 0.17386,-0.568295 0.0956,0 0.17386,0.210525 0.17386,0.467831 0,0.257305 -0.0782,0.513038 -0.17386,0.568292 -0.0956,0.05525 -0.17386,-0.155267 -0.17386,-0.467828 z m 0.59609,-0.565816 c -0.16393,-0.0888 -0.45301,-0.206113 -0.64241,-0.260706 -0.21152,-0.06097 -0.29913,-0.209479 -0.22711,-0.384958 0.0645,-0.157134 0.013,-0.285696 -0.11443,-0.285696 -0.12743,0 -0.17052,-0.09253 -0.0958,-0.20561 0.0884,-0.133713 0.17934,-0.140408 0.2601,-0.01915 0.14398,0.216193 0.57751,0.275976 1.78497,0.246148 0.82062,-0.02027 0.85946,-0.04572 0.74132,-0.485833 -0.0756,-0.28175 -0.0398,-0.4644411 0.091,-0.4644411 0.11862,0 0.18738,0.2229651 0.15281,0.4954791 -0.0471,0.37137 -0.23707,0.557095 -0.75832,0.741478 l -0.69543,0.245999 0.69543,-0.08907 c 0.3825,-0.04899 0.57356,-0.03814 0.42459,0.02412 -0.22477,0.09393 -0.22574,0.139256 -0.006,0.266377 0.1458,0.08425 0.19914,0.214858 0.11852,0.290235 -0.0806,0.07538 -0.25239,0.03812 -0.38171,-0.08279 -0.12931,-0.120908 -0.46312,-0.218554 -0.74179,-0.21699 -0.40009,0.0022 -0.44398,0.04073 -0.20863,0.182932 0.36869,0.222772 0.0134,0.224988 -0.39739,0.0025 z m 0,-0.559808 c -0.38523,-0.232763 -0.59609,-0.232763 -0.59609,0 0,0.102177 0.20118,0.184497 0.44707,0.182933 0.36151,-0.0023 0.39003,-0.03731 0.14902,-0.182933 z m -2.42161,-0.1269 c 0.14343,-0.05367 0.31481,-0.04706 0.38083,0.01466 0.066,0.06173 -0.0513,0.10564 -0.26078,0.09757 -0.23148,-0.0089 -0.27855,-0.05293 -0.12005,-0.112239 z m 2.13619,-1.1974344 c -0.38234,-0.2811896 -0.47619,-0.4529679 -0.32484,-0.594485 0.11707,-0.1094647 0.20658,-0.3704052 0.1989,-0.5798677 -0.0134,-0.3658349 -0.0199,-0.3666873 -0.16442,-0.021619 -0.0828,0.197573 -0.20009,0.2811721 -0.26074,0.1857763 -0.0607,-0.095394 -0.0255,-0.3824436 0.078,-0.6378862 0.17446,-0.4303847 0.20335,-0.4393708 0.39398,-0.1225507 0.11314,0.1880393 0.16822,0.5807222 0.1224,0.8726274 -0.046,0.2926403 -0.001,0.4836222 0.0984,0.4257175 0.1895,-0.1094998 0.10843,-1.0491612 -0.13544,-1.5698182 -0.17262,-0.3685754 0.29476,-0.5801113 0.6946,-0.3143696 0.22175,0.1473765 0.20766,0.1643474 -0.0677,0.081532 -0.22409,-0.067399 -0.34771,-0.00758 -0.34771,0.1682507 0,0.1500587 0.13412,0.2728348 0.29804,0.2728348 0.16393,0 0.29804,0.083599 0.29804,0.1857762 0,0.1021772 -0.0894,0.185777 -0.19869,0.185777 -0.10928,0 -0.19869,0.2507979 -0.19869,0.5573295 0,0.3065308 0.0894,0.5573294 0.19869,0.5573294 0.10928,0 0.18811,-0.062702 0.17517,-0.1393327 -0.10498,-0.6215802 0.33937,-0.8420284 0.56168,-0.2786647 0.0706,0.1788095 0.22423,0.3865286 0.34149,0.4615973 0.13011,0.083302 0.0834,0.1375949 -0.11996,0.139332 -0.18324,0.00147 -0.37404,-0.143455 -0.42402,-0.3222646 -0.0816,-0.291955 -0.0932,-0.289746 -0.11392,0.021668 -0.0167,0.2514951 -0.13218,0.3200928 -0.42024,0.2496618 -0.21846,-0.053412 -0.44727,-0.021366 -0.50847,0.071221 -0.0612,0.092585 0.0282,0.1683356 0.1985,0.1683356 0.17037,0 0.30977,0.0836 0.30977,0.1857763 0,0.260823 -0.0739,0.238118 -0.68281,-0.2096816 z m 0.98086,0.2096814 c 0.0675,-0.1021763 0.27399,-0.184496 0.45879,-0.1829317 0.28955,0.00246 0.2948,0.027735 0.0379,0.1829317 -0.38912,0.235119 -0.65216,0.235119 -0.49673,0 z m -2.75139,-0.7117371 c -0.1811,-0.1871012 -0.26947,-0.3960996 -0.19637,-0.464441 0.25081,-0.2345074 0.41784,-0.1236755 0.51268,0.3401848 0.11351,0.5551352 0.10426,0.5587654 -0.31631,0.1242562 z m -1.39379,-1.3055237 -0.74863,-0.7168243 1.25472,-1.0107748 c 1.24902,-1.006173 1.25993,-1.0104428 2.39758,-0.9379503 1.29861,0.082748 1.36033,0.4099516 0.0773,0.4099516 -0.46346,0 -0.968,0.1044992 -1.12119,0.2322205 -0.23695,0.1975569 -0.23925,0.1836909 -0.0154,-0.092888 0.39915,-0.4931862 -0.0499,-0.3886119 -0.57485,0.1338862 -0.36267,0.3609494 -0.41179,0.5146543 -0.2299,0.7195592 0.12721,0.1433104 0.1799,0.385771 0.11708,0.5388026 -0.0652,0.1588531 0.0212,0.3268082 0.20132,0.391438 0.2169,0.07782 0.38998,-0.045324 0.55379,-0.394024 0.13106,-0.2789737 0.32952,-0.5699232 0.44102,-0.6465563 0.13351,-0.091755 0.11921,-0.1899119 -0.0419,-0.2874577 -0.13863,-0.083945 0.1842,-0.1443151 0.74508,-0.139332 0.54433,0.00484 0.9897,0.071492 0.98972,0.148125 1e-5,0.076633 -0.21619,0.139332 -0.48046,0.139332 -0.82014,0 -1.11119,0.2020338 -1.60582,1.114659 -0.38769,0.7153252 -0.80617,1.1146589 -1.1681,1.1146589 -0.0235,0 -0.37966,-0.3225707 -0.79141,-0.7168258 z m 1.26408,-0.2168238 c -0.16392,-0.097408 -0.42048,-0.1349794 -0.57012,-0.083493 -0.1962,0.067504 -0.24663,-0.030866 -0.18083,-0.3527006 0.0683,-0.3343682 0.012,-0.4318002 -0.22466,-0.388444 -0.17375,0.031828 -0.36807,0.064267 -0.43181,0.072085 -0.0638,0.00782 -0.11591,0.1432093 -0.11591,0.3008723 0,0.1679326 0.114,0.2457586 0.27525,0.1879058 0.15138,-0.054318 0.22688,-0.025586 0.16776,0.063846 -0.0591,0.089429 0.0257,0.2659053 0.18838,0.3921718 0.22144,0.1718323 0.29586,0.1743698 0.29586,0.01009 0,-0.1207195 0.0855,-0.1700783 0.19002,-0.1096859 0.1045,0.060392 0.13652,0.2534232 0.0711,0.4289615 -0.10903,0.292728 -0.0877,0.2916783 0.25705,-0.012674 0.32617,-0.2879085 0.33648,-0.355269 0.0779,-0.5089347 z m 3.47068,-0.00393 c 0.0796,-0.1948887 -0.0603,-0.3570272 -0.4348,-0.5038876 -0.49241,-0.1930955 -0.49841,-0.2049224 -0.0554,-0.1092471 0.84042,0.1815184 0.88264,0.1699702 0.95291,-0.2606168 0.0538,-0.3294286 -0.0273,-0.4179974 -0.38274,-0.4179974 -0.31018,0 -0.38689,-0.059893 -0.24575,-0.1918667 0.3279,-0.3065737 0.86776,0.00337 0.86776,0.4981757 0,0.2487841 -0.18435,0.6369361 -0.40967,0.8625613 -0.23719,0.237514 -0.36024,0.2892468 -0.29229,0.1228786 z m -6.8485,-3.2037215 V 2.6511847 h -0.67831 -0.6783 l 0.0251,-7.1059504 0.0251,-7.1059503 0.1105,6.6879528 0.11051,6.6879537 0.046,-6.7343979 c 0.0315,-4.6211011 0.11248,-6.7343976 0.25797,-6.7343976 0.14751,0 0.19285,2.0632255 0.14902,6.7809556 -0.0551,5.9288951 -0.0255,6.7812985 0.23504,6.7836865 0.26493,0.00246 0.26493,0.022743 0,0.1828181 -0.25739,0.1555228 -0.2526,0.1804751 0.0352,0.1829312 0.18324,0.00154 0.47383,0.2664874 0.64576,0.5887168 0.35963,0.6740334 0.40146,1.0861169 0.11025,1.0861169 -0.11576,0 -0.18689,0.4083598 -0.16622,0.9542829 0.03,0.7908229 0.0769,0.9021989 0.27392,0.6502172 0.13079,-0.1672354 0.34928,-0.3040649 0.48553,-0.3040649 0.13625,0 0.20473,-0.1044992 0.1522,-0.2322205 -0.0656,-0.1594858 0.12999,-0.2322205 0.62449,-0.2322205 0.61784,0 0.72947,-0.065918 0.78653,-0.464441 0.0366,-0.2554433 0.15777,-0.548041 0.26931,-0.6502182 0.13759,-0.1260396 0.15905,0.00837 0.0668,0.417997 -0.0823,0.365415 -0.0572,0.6037737 0.0638,0.6037737 0.3012,0 0.36097,-0.4703418 0.31871,-2.5079828 l -0.0385,-1.85776472 0.13611,1.48621222 0.13612,1.4862114 0.0755,-1.6719884 0.0755,-1.67198773 0.11054,1.85776473 c 0.0973,1.6347395 0.15228,1.8512115 0.45825,1.8031769 0.39644,-0.062238 0.47577,0.2539824 0.0994,0.3959931 -0.13661,0.051538 -0.0419,0.1003031 0.21041,0.1083694 0.25234,0.00807 0.40749,0.092289 0.34478,0.1871609 -0.0627,0.094872 0.0885,0.2088867 0.33599,0.2533656 0.25203,0.045289 0.0879,0.092001 -0.37319,0.1061703 -0.58132,0.017863 -0.85822,-0.060041 -0.9424,-0.2651406 -0.0656,-0.1597414 -0.20924,-0.2384071 -0.3193,-0.1748123 -0.33198,0.1918344 -0.22656,0.467284 0.24697,0.6452398 0.33821,0.1271069 0.13444,0.1708809 -0.83695,0.1797897 -1.23438,0.011319 -1.31692,0.041981 -2.13598,0.7935613 l -0.85197,0.7817864 z m 6.55696,0.5186489 c -0.20918,-0.2356533 -0.16693,-0.278664 0.27372,-0.278664 0.3307,0 0.52106,0.1018036 0.52106,0.278664 0,0.1532661 -0.12317,0.2786647 -0.27371,0.2786647 -0.15055,0 -0.38502,-0.1253986 -0.52107,-0.2786647 z m -0.59609,-0.6365956 c 0,-0.094685 -0.15647,-0.2103865 -0.34772,-0.2571144 -0.25513,-0.062337 -0.22555,-0.090698 0.11108,-0.1065101 0.25234,-0.011852 0.40594,-0.1014983 0.34135,-0.1992133 -0.0646,-0.097714 -0.27104,-0.1272104 -0.45879,-0.065546 -0.26161,0.085924 -0.28897,0.058917 -0.1171,-0.1156052 0.17652,-0.1792596 0.40909,-0.1671982 1.09282,0.056677 0.73875,0.2418886 0.7869,0.2857258 0.32217,0.2932682 -0.34903,0.00569 -0.54641,0.1095357 -0.54641,0.2875329 0,0.1532654 -0.0894,0.2786647 -0.19871,0.2786647 -0.10928,0 -0.19869,-0.077469 -0.19869,-0.1721538 z m 0.69007,-0.021739 c -0.0646,-0.097714 0.0667,-0.1776622 0.29168,-0.1776622 0.47977,0 0.52817,0.1033119 0.11744,0.250675 -0.16042,0.057555 -0.34452,0.024702 -0.40912,-0.073013 z m -5.93559,-1.079629 c -0.0791,-0.6493473 -0.0935,-1.2275769 -0.0321,-1.2849542 0.0614,-0.057379 0.11295,0.1395089 0.11462,0.4375255 0.004,0.6698613 0.18301,0.9433343 0.67593,1.0312425 0.58907,0.1050553 0.62887,0.532376 0.0496,0.532376 -0.2732,0 -0.53442,0.1044992 -0.58048,0.2322205 -0.046,0.1277213 -0.14843,-0.2990635 -0.22749,-0.9484103 z m 4.05334,0.3446371 c 0,-0.1021772 0.0894,-0.1857769 0.1987,-0.1857769 0.10929,0 0.1987,0.0836 0.1987,0.1857769 0,0.1021767 -0.0894,0.1857765 -0.1987,0.1857765 -0.10928,0 -0.1987,-0.0836 -0.1987,-0.1857765 z m 2.08632,-0.4644417 c 0,-0.2554426 0.10385,-0.464441 0.23078,-0.464441 0.12694,0 0.20084,0.1462988 0.16422,0.325109 -0.0366,0.1788096 -0.0734,0.3878079 -0.0818,0.464441 -0.04,0.3659461 -0.31324,0.082277 -0.31324,-0.325109 z m -4.00385,-1.5790999 c 0,-0.86850508 0.0342,-1.22380288 0.0761,-0.78955001 0.0418,0.43425221 0.0418,1.14484781 0,1.57910001 -0.0418,0.4342528 -0.0761,0.078955 -0.0761,-0.78955 z m 2.3646,1.1660779 c -0.1366,-0.04531 -0.24837,-0.3370855 -0.24837,-0.6483903 0,-0.5581783 0.012,-0.5647469 0.86568,-0.4747787 0.78379,0.082601 0.86367,0.054136 0.84446,-0.3009481 -0.0177,-0.3277961 -0.16638,-0.4018551 -0.90545,-0.4511213 -0.62946,-0.0419603 -0.80121,-0.10804921 -0.59609,-0.22937606 0.19802,-0.11712941 0.21047,-0.17132255 0.0398,-0.17327733 -0.1366,-0.001545 -0.24836,-0.12824441 -0.24836,-0.28150983 0,-0.34675759 0.1473,-0.35325385 0.50146,-0.0221177 0.15092,0.14110143 0.21159,0.31624858 0.13483,0.38921503 -0.0768,0.0729657 -0.005,0.11481303 0.15849,0.0929931 0.51932,-0.0691264 0.72229,-0.005126 1.19217,0.37590229 0.27759,0.225093 0.35223,0.3715533 0.18936,0.3715533 -0.20909,0 -0.21585,0.049543 -0.0304,0.2229318 0.32693,0.3056743 0.30257,0.6154343 -0.0282,0.3587566 -0.14666,-0.1138012 -0.32549,-0.1519047 -0.39739,-0.084673 -0.25787,0.241095 -0.12292,0.4321465 0.31632,0.4478345 0.37708,0.013467 0.35374,0.044748 -0.14902,0.1997659 -0.77642,0.239402 -1.33092,0.3095037 -1.63924,0.2072381 z m 1.14251,-0.4318838 c 0,-0.085216 -0.1102,-0.2186122 -0.24488,-0.2964382 -0.34321,-0.198323 -0.9473,-0.2207418 -0.9473,-0.035157 0,0.085101 0.11177,0.1560094 0.24837,0.1575745 0.17761,0.00204 0.16939,0.0496 -0.0288,0.1669615 -0.22212,0.131503 -0.20238,0.1795004 0.0993,0.241533 0.45137,0.092799 0.8733,-0.020482 0.8733,-0.234475 z m -5.62973,-0.6722689 c -0.20554,-0.1921792 -0.15604,-1.14103306 0.0662,-1.26947267 0.12,-0.0693441 0.19869,0.18384746 0.19869,0.63925397 0,0.7700864 -0.0325,0.8474961 -0.26492,0.6302187 z m 6.22581,-1.25850864 c 0,-0.14723538 -0.10323,-0.32735093 -0.2294,-0.400257 -0.13691,-0.0791159 -0.17566,-0.0512638 -0.0961,0.0690913 0.0733,0.11090417 0.0424,0.25415347 -0.0686,0.31833255 -0.28432,0.16429124 -0.23988,-0.30748578 0.0642,-0.68140383 0.17376,-0.21367959 0.34363,-0.25839795 0.54009,-0.14217712 0.19806,0.11716172 0.20987,0.17042591 0.0382,0.17239122 -0.1366,0.001545 -0.24837,0.0913782 -0.24837,0.19958539 0,0.10820723 0.084,0.14820014 0.18667,0.0888729 0.10267,-0.0593244 0.17305,0.061136 0.15641,0.2677007 -0.0342,0.42422761 -0.34308,0.52134934 -0.34308,0.10786739 z m -3.73649,-1.3113992 c 0.004,-0.30653086 0.0486,-0.40943896 0.099,-0.22868446 0.0504,0.18075376 0.0471,0.43155236 -0.008,0.55732942 -0.0544,0.12577636 -0.0956,-0.0221106 -0.0916,-0.32864496 z m 2.37751,0.1403887 c -1.17665,-0.052001 -1.4369,-0.1166351 -1.34743,-0.3346392 0.12466,-0.30373976 -0.18482,-0.37594226 -0.34192,-0.07977 -0.0556,0.10472924 -0.08,0.089804 -0.0544,-0.033169 0.0256,-0.1229762 0.1754,-0.2792714 0.33282,-0.3473228 0.15742,-0.068052 0.48618,-0.2203233 0.73058,-0.3383817 0.85343,-0.4122447 1.56012,-0.212455 1.02343,0.289336 -0.12162,0.11371 -0.16105,0.2976283 -0.0876,0.4087087 0.15313,0.23165714 0.70613,0.27529494 0.70613,0.055722 0,-0.080434 0.15967,-0.1574882 0.35482,-0.171232 0.2268,-0.015974 0.35481,0.1038125 0.35481,0.33201644 0,0.1963548 -0.0479,0.3403975 -0.10644,0.3200949 -0.0586,-0.020299 -0.7627,-0.065918 -1.56478,-0.1013627 z m -2.99665,-0.3416466 c 0.01,-0.21641866 0.0566,-0.26043976 0.12005,-0.11223966 0.0574,0.13410736 0.0503,0.29433946 -0.0157,0.35607156 -0.066,0.061733 -0.11299,-0.047992 -0.10436,-0.2438319 z m 3.56389,-1.79583876 c 0.002,-0.1277213 0.0766,-0.340677 0.16656,-0.4732354 0.13112,-0.1932597 0.21265,-0.1856695 0.41146,0.038309 0.13637,0.1536263 0.19026,0.366582 0.11975,0.4732347 -0.17937,0.2713596 -0.70145,0.2426979 -0.69777,-0.038308 z m -1.72468,-0.4159317 c -0.20835,-0.6047996 -0.24376,-1.2190781 -0.0643,-1.115366 0.0914,0.052844 0.21402,-0.051243 0.27239,-0.2313049 0.0583,-0.1800608 0.0813,-0.060097 0.051,0.2665793 -0.0303,0.326679 0.0119,0.555214 0.0939,0.5078548 0.0819,-0.04736 0.20166,-0.00646 0.266,0.090878 0.0644,0.097342 0.29629,0.1643572 0.51544,0.1489226 0.29266,-0.020608 0.47125,-0.2572675 0.67263,-0.8912961 0.1508,-0.474778 0.36418,-1.0211265 0.4742,-1.2141068 0.11001,-0.192981 0.34422,-0.7688711 0.52048,-1.2797563 l 0.32046,-0.9288827 -0.12791,0.8359942 c -0.0704,0.459797 -0.15449,1.0031931 -0.18698,1.2075475 -0.0325,0.2043536 -0.0665,0.5267958 -0.0756,0.7165378 -0.0101,0.209155 -0.1217,0.3072639 -0.28359,0.2491809 -0.19126,-0.068621 -0.24106,0.031168 -0.17553,0.3516768 0.0503,0.2461146 0.006,0.4474806 -0.0985,0.4474806 -0.10448,0 -0.28951,0.2042919 -0.41119,0.4539819 -0.19432,0.3987466 -0.29458,0.4343167 -0.82401,0.2923517 -0.35881,-0.096217 -0.6488,-0.091983 -0.71651,0.010462 -0.0626,0.094649 0.15448,0.17209 0.48233,0.17209 0.32785,0 0.64139,0.068529 0.69676,0.1522936 0.0553,0.083761 -0.20835,0.1473906 -0.58604,0.1413977 -0.50674,-0.00804 -0.72044,-0.1088096 -0.81542,-0.3845141 z m 2.51642,-0.7561355 c 0,-0.3636499 0.0745,-0.6181291 0.16557,-0.5655088 0.15662,0.0905 0.0744,1.2266901 -0.0888,1.2266901 -0.0422,0 -0.0768,-0.2975315 -0.0768,-0.6611813 z m -2.70831,-0.9515255 c 0.0725,-0.1206613 0.0409,-0.271894 -0.0702,-0.3360731 -0.24921,-0.1440027 -0.26614,-0.4663143 -0.0245,-0.4663143 0.29972,0 0.44576,0.6073701 0.19732,0.8206151 -0.17021,0.1460979 -0.19831,0.1411084 -0.10263,-0.018228 z m 1.10845,-0.3379457 c -0.0195,-0.2043544 -0.0195,-0.5178519 -1e-4,-0.6966622 0.0195,-0.1788095 -0.0493,-0.3251089 -0.15265,-0.3251089 -0.27437,0 -0.41462,-0.9007421 -0.15579,-1.0006225 0.12072,-0.046588 0.063,-0.091303 -0.12823,-0.09937 -0.19125,-0.00807 -0.34772,-0.112199 -0.34772,-0.2314053 0,-0.1192064 0.0588,-0.161732 0.13074,-0.0945 0.17908,0.1674333 0.66404,-0.2324206 0.66404,-0.5475023 0,-0.3195367 -0.33836,-0.3372111 -0.45365,-0.023697 -0.0469,0.1277213 -0.0619,0.085921 -0.0332,-0.092888 0.0288,-0.1788103 -0.0437,-0.325109 -0.16099,-0.325109 -0.11726,0 -0.16639,-0.043765 -0.10918,-0.097261 0.21867,-0.2044485 0.75966,0.1568063 1.05016,0.7012577 0.37304,0.6991808 0.38091,0.9010847 0.0176,0.4531013 -0.20576,-0.2537357 -0.31034,-0.2792152 -0.42625,-0.1038518 -0.0892,0.1348762 -0.046,0.2658955 0.10276,0.3122702 0.18414,0.057394 0.19277,0.1166351 0.0306,0.2103297 -0.16433,0.094952 -0.144,0.3133171 0.0747,0.8027412 0.20987,0.4696425 0.24499,0.8015574 0.11648,1.1010696 -0.16876,0.3933485 -0.18689,0.3980733 -0.21943,0.057211 z m -2.85453,-0.9707938 c -0.0798,-0.3295831 -0.0796,-0.6982259 3.3e-4,-0.8192073 0.08,-0.1209814 0.14011,-0.561918 0.13363,-0.9798593 -0.01,-0.6358204 0.0143,-0.6840607 0.14756,-0.2954517 0.10629,0.3098036 0.16593,0.3561952 0.17915,0.1393321 0.0109,-0.1788096 0.107,-0.325109 0.21357,-0.325109 0.1246,0 0.12636,0.1658156 0.005,0.4644417 -0.11983,0.2947053 -0.11942,0.464441 7.5e-4,0.464441 0.1045,0 0.24353,-0.1994303 0.30896,-0.4431779 0.0875,-0.3259115 0.22075,-0.4182917 0.50362,-0.3491287 0.54446,0.1331215 0.62363,0.3384132 0.14355,0.3722251 -0.60825,0.042838 -0.63271,0.1369448 -0.28417,1.0933242 0.38253,1.0496773 0.37496,0.9394725 0.072,1.0478468 -0.16093,0.057569 -0.26437,-0.1148425 -0.29384,-0.4896972 -0.025,-0.3182019 -0.13732,-0.6071798 -0.24961,-0.6421734 -0.11227,-0.034995 -0.16281,-0.1261499 -0.11229,-0.2025703 0.0505,-0.076421 -0.0261,-0.1389465 -0.1702,-0.1389465 -0.14412,0 -0.22818,0.1323653 -0.1868,0.2941457 0.0414,0.1617804 -0.001,0.5449443 -0.0956,0.8514758 l -0.17086,0.5573295 z m 0.48047,0.063839 c 0,-0.1532654 0.0894,-0.3303322 0.19869,-0.3934813 0.10929,-0.063151 0.1987,0.010581 0.1987,0.1638489 0,0.1532654 -0.0894,0.3303316 -0.1987,0.3934806 -0.10928,0.063151 -0.19869,-0.010581 -0.19869,-0.1638482 z m 2.75124,-0.2473181 c -0.0782,-0.2529472 -0.0204,-0.4940365 0.15036,-0.6265211 0.32194,-0.2498107 0.36809,-0.8387073 0.0788,-1.0058535 -0.10928,-0.063151 -0.19585,-0.2143818 -0.19238,-0.336073 0.004,-0.1231068 0.12241,-0.078319 0.26802,0.1009645 0.14393,0.177222 0.31914,0.2685131 0.38935,0.2028701 0.0702,-0.065644 0.0323,-0.2268238 -0.0843,-0.358178 -0.16202,-0.1825225 -0.11361,-0.2318968 0.20531,-0.2094351 0.27329,0.019246 0.37976,0.1208704 0.30851,0.2944539 -0.084,0.2046935 -0.0474,0.2174382 0.1607,0.055961 0.20625,-0.1600432 0.26947,-0.1444141 0.26947,0.066613 0,0.1516435 -0.16222,0.2757151 -0.36049,0.2757151 -0.21881,0 -0.40948,0.1825323 -0.48516,0.4644417 -0.0686,0.2554426 -0.19845,0.4644409 -0.28863,0.4644409 -0.0902,0 -0.19286,0.2298985 -0.22818,0.5108853 -0.0597,0.474792 -0.0732,0.4818367 -0.19138,0.099719 z m -4.46551,-1.065345 c -0.17721,-0.3573902 -0.16683,-0.472371 0.0496,-0.5500496 0.15141,-0.054325 0.27372,0.016922 0.27372,0.1594324 0,0.1417025 0.0543,0.3898764 0.12061,0.5514995 0.19531,0.475879 -0.19913,0.3329548 -0.444,-0.1608823 z m 6.68167,-0.4741419 c 0,-0.536687 0.0828,-0.7431057 0.29805,-0.7431057 0.21525,0 0.29804,0.2064187 0.29804,0.7431057 0,0.5366878 -0.0828,0.7431065 -0.29804,0.7431065 -0.21526,0 -0.29805,-0.2064187 -0.29805,-0.7431065 z"
       id="path982"
       clip-path="url(#clipPath1186-3-1)"
       transform="matrix(0.31654268,-0.00697576,0.005978,0.27126687,122.62179,68.537685)" />
    <path
       style="fill:#000000;fill-opacity:1;stroke-width:0.264583"
       d="m 45.225719,183.93806 c -11.69655,-0.87409 -21.85075,-3.41521 -30.55938,-7.64755 -16.91422,-8.22021 -25.74898,-22.2733 -25.78645,-41.01743 -0.0112,-5.60778 0.69998,-10.00689 2.51096,-15.53172 3.7189,-11.3454 11.77452,-21.939372 24.86299,-32.697372 6.91005,-5.67968 13.51503,-10.30437 28.38958,-19.877861 21.98604,-14.150567 27.27768,-18.042114 33.95903,-24.973944 2.96982,-3.081152 5.60318,-6.611183 7.02505,-9.417092 0.67581,-1.333658 1.72225,-4.129098 1.54568,-4.129098 -0.051,0 -0.44616,0.625079 -0.87806,1.389063 -1.73198,3.063671 -5.20499,6.834552 -9.58951,10.411989 -10.74723,8.768926 -28.98871,17.132791 -56.84528,26.064021 -13.84396,4.438582 -18.65871,6.443662 -23.97583,9.984662 -3.40199,2.26558 -7.93821,6.63333 -9.80851,9.44421 -5.37027,8.07102 -7.56734,19.377242 -5.28543,27.199072 0.37544,1.28695 0.87691,2.7157 1.11436,3.175 0.40581,0.78496 0.40462,0.81261 -0.0198,0.46053 -1.73996,-1.44333 -6.15744,-7.81135 -8.09126,-11.66396 -6.46887,-12.887432 -6.508468,-26.212842 -0.11481,-38.635113 2.08321,-4.04748 4.79189,-7.727728 8.23859,-11.193685 4.60526,-4.63097 9.36398,-8.079658 15.28623,-11.078067 6.71953,-3.402068 8.03384,-3.843861 23.92691,-8.042804 15.49052,-4.092593 22.85165,-6.55466 32.69392,-10.935096 3.55446,-1.581965 8.73649,-4.235244 8.29633,-4.247857 -0.0937,-0.0027 -1.34384,0.458545 -2.77812,1.024957 -7.9484,3.138889 -15.98222,5.386469 -30.8547,8.632062 -3.67295,0.801542 -8.34497,1.821217 -10.38226,2.265948 -9.62081,2.100169 -17.86926,4.521469 -21.67469,6.36253 -0.8615,0.41679 -1.61082,0.713351 -1.66514,0.659022 -0.18099,-0.180986 2.41364,-2.341013 4.25559,-3.542779 5.46351,-3.564625 14.2394,-6.669797 34.56237,-12.229208 29.16482,-7.978129 38.77295,-11.804494 44.91287,-17.886222 2.54957,-2.5254 3.55102,-4.585404 3.59375,-7.39236 0.034,-2.232848 0.19929,-2.367637 1.53082,-1.24831 3.66532,3.081184 7.48533,9.265812 9.46506,15.324005 3.50114,10.7139 2.54081,22.078709 -2.7621,32.687516 -1.6776,3.356131 -4.53578,7.822303 -6.90654,10.792124 -3.72441,4.665506 -11.75288,12.739555 -26.15366,26.302115 -8.12239,7.64962 -20.42776,20.124122 -23.51324,23.836432 -5.20867,6.26682 -9.18567,12.81286 -11.41295,18.78541 -0.87721,2.35227 -2.23628,7.17744 -2.24464,7.96924 -0.005,0.44984 4.56148,5.6432 8.23637,9.36757 7.49788,7.59881 14.00334,12.61462 20.83591,16.06481 8.27031,4.17619 14.58744,4.2711 22.71794,0.34131 6.56727,-3.17421 13.34505,-8.27287 20.58688,-15.48668 5.98415,-5.961 11.111821,-12.02048 16.391501,-19.37019 0.85825,-1.19475 1.61236,-2.12037 1.67579,-2.05694 0.23635,0.23635 -4.2291,8.84967 -6.30764,12.16671 -9.351081,14.92293 -24.445071,28.92637 -35.065671,32.53216 -6.81866,2.315 -13.61669,1.75858 -20.4206,-1.67142 -8.81715,-4.44492 -20.17266,-15.05499 -28.34158,-26.48109 l -0.8412,-1.1766 0.005,3.69014 c 0.003,2.02958 0.12241,4.52358 0.2656,5.54223 0.84833,6.03474 3.41008,13.42991 6.43715,18.58251 4.5514,7.74727 13.47437,14.82781 22.79305,18.08671 l 2.11667,0.74023 -1.5875,-0.0231 c -0.87312,-0.0127 -2.83766,-0.11654 -4.36562,-0.23072 z m 8.87525,-39.80674 c -2.12537,-0.74267 -5.00828,-2.43599 -8.26695,-4.85572 -1.28045,-0.9508 -3.42375,-2.46433 -4.76288,-3.36339 l -2.43479,-1.63466 2.66542,-0.84495 c 1.46598,-0.46472 3.93085,-1.50748 5.47749,-2.31725 1.54665,-0.80977 3.40729,-1.78312 4.13477,-2.16302 1.9955,-1.04206 4.08796,-0.94599 6.99213,0.32103 1.22617,0.53495 2.55985,0.97263 2.96375,0.97263 0.40389,0 1.72237,-0.43753 2.92997,-0.9723 2.99186,-1.32489 4.9559,-1.3762 7.2321,-0.18892 5.70011,2.9732 6.97761,3.56378 9.37172,4.3325 l 2.67158,0.85781 -2.58676,1.77267 c -1.42272,0.97496 -3.89762,2.71756 -5.49979,3.87243 -3.21359,2.31642 -5.44851,3.58432 -7.65814,4.34454 -1.22765,0.42238 -2.2385,0.50109 -6.43512,0.50109 -4.573,0 -5.12665,-0.0517 -6.7945,-0.63449 z m 9.46794,-8.35781 c 1.21592,-0.31413 3.55139,-0.63625 5.33702,-0.7361 l 3.175,-0.17756 -1.98438,-0.35812 c -1.43321,-0.25865 -2.8295,-0.30133 -5.02708,-0.15365 -1.67349,0.11246 -3.63802,0.1884 -4.36563,0.16876 -5.83167,-0.1574 -9.60663,-0.0973 -10.18646,0.16214 -0.5531,0.24749 -0.28602,0.29872 1.63037,0.31274 2.33356,0.0171 5.22183,0.47457 7.36547,1.16665 0.65484,0.21142 1.34881,0.33699 1.54215,0.27904 0.19334,-0.0579 1.32443,-0.3567 2.51354,-0.6639 z m -9.40027,-20.46601 c -3.3223,-1.2388 -4.70959,-2.24879 -4.70959,-3.42872 0,-0.61149 0.0444,-0.62801 0.99219,-0.36918 1.90212,0.51944 3.82774,1.65689 4.98609,2.94526 0.64101,0.71295 1.16547,1.40247 1.16547,1.53225 0,0.12978 -0.0298,0.22308 -0.0661,0.20734 -0.0364,-0.0157 -1.10199,-0.41488 -2.36802,-0.88695 z m 11.11447,0.48159 c 0.87594,-1.6367 4.11055,-3.83148 6.2025,-4.20856 1.22869,-0.22147 1.32339,0.23959 0.29921,1.45675 -0.80699,0.95906 -1.66299,1.43729 -4.05404,2.26493 -0.9544,0.33036 -1.95748,0.69075 -2.22907,0.80088 -0.42508,0.17236 -0.4555,0.12866 -0.2186,-0.314 z m 22.71982,-34.628462 c -2.85834,-0.4803 -5.93761,-1.53719 -8.91951,-3.0614 -2.53478,-1.29567 -4.1869,-2.3569 -3.03375,-1.9487 5.38271,1.90536 7.9103,2.3671 12.96459,2.36836 4.78197,10e-4 6.85722,-0.38075 10.10037,-1.85897 4.365831,-1.98994 7.376611,-4.82551 10.386021,-9.781634 l 1.1246,-1.852083 -0.18695,1.455208 c -0.24128,1.878169 -1.30175,5.550119 -2.01134,6.964459 -0.30501,0.60793 -1.03287,1.74578 -1.61747,2.52855 l -1.06291,1.42322 2.34946,-0.18638 c 3.07691,-0.24408 5.58769,-0.76622 7.01646,-1.45913 l 1.15384,-0.55957 -1.03161,0.93206 c -1.8592,1.6798 -7.36628,3.32137 -11.14238,3.32137 -0.83633,0 -2.08772,0.26298 -3.14489,0.6609 -3.664831,1.37944 -8.610411,1.78203 -12.944531,1.05374 z"
       id="path1220-0"
       clip-path="url(#clipPath1446-0-3)"
       transform="matrix(0.31214838,0,0,0.30271694,92.222208,66.166653)" />
  </g>
</svg>
